<svg id="Layer_1" data-name="Layer 1" xmlns="http://www.w3.org/2000/svg" viewBox="0 0 448.68 207.89"><defs><style>.cls-1{fill:#fff;}</style></defs><title>Artboard 1</title><path class="cls-1" d="M361.61,78.59H337.17v-74a2,2,0,0,0-2-2h-20a2,2,0,0,0-2,2v76h0v20h0v0a2,2,0,0,0,2,2h11.22V179H315.17a2,2,0,0,0-2,2v20a2,2,0,0,0,2,2H328a2.21,2.21,0,0,0,.37,0h20a2.2,2.2,0,0,0,.36,0h12.86a2,2,0,0,0,2-2V181a2,2,0,0,0-2-2H350.39V102.59h11.22a2,2,0,0,0,2-2v-20A2,2,0,0,0,361.61,78.59Z"/><path class="cls-1" d="M149.09,98a12,12,0,0,0,0-24h0a12,12,0,0,0,0,24Z"/><path class="cls-1" d="M412.28,53l32-32a2,2,0,0,0,0-2.83L430.1,4a2,2,0,0,0-2.83,0L396.72,34.56a2,2,0,0,1-2.83,0L363.39,4.05a2,2,0,0,0-2.83,0L346.42,18.2a2,2,0,0,0,0,2.82L378.34,53l4,4V103H365.87a2,2,0,0,0-2,2v20a2,2,0,0,0,2,2h16.66v74a2,2,0,0,0,2,2h20a2,2,0,0,0,2-2V127h19.79a2,2,0,0,0,2-2V105a2,2,0,0,0-2-2h-20V58.92Z"/><path class="cls-1" d="M276,64.59h1.42a23.87,23.87,0,0,0,23.88-23.87V26.47A23.88,23.88,0,0,0,277.43,2.59H212.32a2,2,0,0,0-2,2h0V97L150.76,7.11a2,2,0,0,0-3.34,0L98.68,80.73H51a4,4,0,0,1-4-4v-8a4,4,0,0,1,4-4H84.35a2,2,0,0,0,2-2V46.59a2,2,0,0,0-2-2H51a4,4,0,0,1-4-4v-8a4,4,0,0,1,4-4H98a2,2,0,0,0,2-2v-20a2,2,0,0,0-2-2H47.88A23.88,23.88,0,0,0,24,28.47V80.86a23.87,23.87,0,0,0,15.08,22.19,52,52,0,1,0,36.44,1.68H100v-.14h12.72L149.09,49.3l36.37,55.29h24.85v98a2,2,0,0,0,2,2h65.11a23.87,23.87,0,0,0,23.88-23.87v-9.25a23.82,23.82,0,0,0-8.06-17.88,23.79,23.79,0,0,0,8.06-17.87v-9.25A23.87,23.87,0,0,0,281.72,103l27.71,0Zm-221,116a28,28,0,1,1,28.05-28A28.05,28.05,0,0,1,55.05,180.64Zm217.38-37H234.31v-17h38.12a6.87,6.87,0,0,1,6.87,6.88v3.25A6.86,6.86,0,0,1,272.43,143.59Zm-38.12-41V53l.26.18-.26.06,42.82,49.36Zm0-74a2,2,0,0,1,2-2h36.12a6.87,6.87,0,0,1,6.87,6.88v6.25a6.86,6.86,0,0,1-6.87,6.87H234.31Zm45,145.12a6.86,6.86,0,0,1-6.87,6.87H236.31a2,2,0,0,1-2-2v-15h38.12a6.87,6.87,0,0,1,6.87,6.88Z"/><path class="cls-1" d="M178.32,166.59a23.87,23.87,0,0,0,23.87-23.87V128.47a23.88,23.88,0,0,0-23.87-23.88H113.19a2,2,0,0,0-2,2v96a2,2,0,0,0,2,2h20a2,2,0,0,0,2-2V155l.27.18-.27.06,42.6,49.35,32,0-32.92-38Zm-43.13-36a2,2,0,0,1,2-2h36.12a6.87,6.87,0,0,1,6.87,6.88v6.25a6.86,6.86,0,0,1-6.87,6.87H135.19Z"/></svg>